<svg xmlns="http://www.w3.org/2000/svg" xmlns:xlink="http://www.w3.org/1999/xlink" xmlns:lucid="lucid" width="1260" height="720"><g transform="translate(-40 -60)" lucid:page-tab-id="0_0"><path d="M60 80h500v680H60z" stroke="#000" stroke-width="2" fill="#c7e8ac"/><use xlink:href="#a" transform="matrix(1,0,0,1,65,85) translate(0 21.333333333333336)"/><use xlink:href="#b" transform="matrix(1,0,0,1,65,85) translate(61.62962962962963 21.333333333333336)"/><path d="M360 620h160v80H360z" stroke="#000" stroke-width="2" fill="#fff"/><use xlink:href="#c" transform="matrix(1,0,0,1,365,625) translate(38.525 27.799999999999997)"/><use xlink:href="#d" transform="matrix(1,0,0,1,365,625) translate(45.55 49.4)"/><path d="M620 460h160v280H620z" stroke="#000" stroke-width="2" fill="#fff"/><use xlink:href="#e" transform="matrix(1,0,0,1,625,465) translate(48 127.80000000000001)"/><use xlink:href="#f" transform="matrix(1,0,0,1,625,465) translate(37.05 149.4)"/><path d="M521 660h79.76" stroke="#000" stroke-width="2" fill="none"/><path d="M521 661h-1v-2h1zM615.76 660l-14.26 4.64v-9.28z"/><path d="M619 660l-18.5 6v-12zm-16.5 3.26l10.03-3.26-10.03-3.26z"/><path d="M820 380h460v380H820z" stroke="#000" stroke-width="2" fill="#f9d2de"/><use xlink:href="#g" transform="matrix(1,0,0,1,825,385) translate(0 21.333333333333336)"/><path d="M100 620h160v80H100z" stroke="#000" stroke-width="2" fill="#fff"/><use xlink:href="#c" transform="matrix(1,0,0,1,105,625) translate(38.525 27.799999999999997)"/><use xlink:href="#h" transform="matrix(1,0,0,1,105,625) translate(41.525 49.4)"/><path d="M261 660h79.76" stroke="#000" stroke-width="2" fill="none"/><path d="M261 661h-1v-2h1zM355.76 660l-14.26 4.64v-9.28z"/><path d="M359 660l-18.5 6v-12zm-16.5 3.26l10.03-3.26-10.03-3.26z"/><path d="M100 140h160v80H100z" stroke="#000" stroke-width="2" fill="#fff"/><use xlink:href="#i" transform="matrix(1,0,0,1,105,145) translate(24.074999999999996 38.6)"/><use xlink:href="#j" transform="matrix(1,0,0,1,105,145) translate(93.92500000000001 38.6)"/><path d="M360 140h160v80H360z" stroke="#000" stroke-width="2" fill="#fff"/><use xlink:href="#k" transform="matrix(1,0,0,1,365,145) translate(40 27.799999999999997)"/><use xlink:href="#l" transform="matrix(1,0,0,1,365,145) translate(13.574999999999996 49.4)"/><use xlink:href="#m" transform="matrix(1,0,0,1,365,145) translate(88.475 49.4)"/><path d="M279.24 180h61.52" stroke="#000" stroke-width="2" fill="none"/><path d="M278.5 184.64L264.24 180l14.26-4.64z"/><path d="M279.5 186l-18.5-6 18.5-6zm-12.03-6l10.03 3.26v-6.52zM355.76 180l-14.26 4.64v-9.28z"/><path d="M359 180l-18.5 6v-12zm-16.5 3.26l10.03-3.26-10.03-3.26z"/><path d="M1080 620h160v80h-160z" stroke="#000" stroke-width="2" fill="#fff"/><use xlink:href="#n" transform="matrix(1,0,0,1,1085,625) translate(32.074999999999996 38.6)"/><path d="M1080 460h160v80h-160z" stroke="#000" stroke-width="2" fill="#fff"/><use xlink:href="#o" transform="matrix(1,0,0,1,1085,465) translate(54.025 38.6)"/><path d="M1080 220h160v80h-160z" stroke="#000" stroke-width="2" fill="#fff"/><use xlink:href="#p" transform="matrix(1,0,0,1,1085,225) translate(54.85 38.6)"/><path d="M781 660h279.76" stroke="#000" stroke-width="2" fill="none"/><path d="M781 661h-1v-2h1zM1075.76 660l-14.26 4.64v-9.28z"/><path d="M1079 660l-18.5 6v-12zm-16.5 3.26l10.03-3.26-10.03-3.26z"/><path d="M1160 619v-59.76" stroke="#000" stroke-width="2" fill="none"/><path d="M1161 620h-2v-1h2zM1164.64 558.5h-9.28l4.64-14.26z"/><path d="M1166 559.5h-12l6-18.5zm-9.26-2h6.52l-3.26-10.03z"/><path d="M1160 440.76V319.24" stroke="#000" stroke-width="2" fill="none"/><path d="M1160 455.76l-4.64-14.26h9.28z"/><path d="M1160 459l-6-18.5h12zm-3.26-16.5l3.26 10.03 3.26-10.03zM1164.64 318.5h-9.28l4.64-14.26z"/><path d="M1166 319.5h-12l6-18.5zm-9.26-2h6.52l-3.26-10.03z"/><path d="M360 460h160v80H360z" stroke="#000" stroke-width="2" fill="#fff"/><use xlink:href="#n" transform="matrix(1,0,0,1,365,465) translate(32.074999999999996 38.6)"/><path d="M619 500h-79.76" stroke="#000" stroke-width="2" fill="none"/><path d="M620 501h-1v-2h1zM538.5 504.64L524.24 500l14.26-4.64z"/><path d="M539.5 506l-18.5-6 18.5-6zm-12.03-6l10.03 3.26v-6.52z"/><path d="M360 300h160v80H360z" stroke="#000" stroke-width="2" fill="#fff"/><use xlink:href="#q" transform="matrix(1,0,0,1,365,305) translate(31.049999999999997 39.1)"/><path d="M440 459v-59.76" stroke="#000" stroke-width="2" fill="none"/><path d="M441 460h-2v-1h2zM444.64 398.5h-9.28l4.64-14.26z"/><path d="M446 399.5h-12l6-18.5zm-9.26-2h6.52L440 387.47z"/><path d="M440 299v-59.76" stroke="#000" stroke-width="2" fill="none"/><path d="M441 300h-2v-1h2zM444.64 238.5h-9.28l4.64-14.26z"/><path d="M446 239.5h-12l6-18.5zm-9.26-2h6.52L440 227.47z"/><path d="M180 221v379.76" stroke="#000" stroke-width="2" fill="none"/><path d="M181 221h-2v-1h2zM180 615.76l-4.64-14.26h9.28z"/><path d="M180 619l-6-18.5h12zm-3.26-16.5l3.26 10.03 3.26-10.03z"/><path d="M860 460h160v80H860z" stroke="#000" stroke-width="2" fill="#fff"/><use xlink:href="#c" transform="matrix(1,0,0,1,865,465) translate(38.525 27.799999999999997)"/><use xlink:href="#d" transform="matrix(1,0,0,1,865,465) translate(45.55 49.4)"/><path d="M859 500h-59.76" stroke="#000" stroke-width="2" fill="none"/><path d="M860 501h-1v-2h1zM798.5 504.64L784.24 500l14.26-4.64z"/><path d="M799.5 506l-18.5-6 18.5-6zm-12.03-6l10.03 3.26v-6.52z"/><path d="M1079 500h-39.76" stroke="#000" stroke-width="2" fill="none"/><path d="M1080 501h-1v-2h1zM1038.5 504.64l-14.26-4.64 14.26-4.64z"/><path d="M1039.5 506l-18.5-6 18.5-6zm-12.03-6l10.03 3.26v-6.52z"/><defs><path d="M266 0h-40l-56-210L115 0H75L2-248h35L96-30l15-64 43-154h32l59 218 59-218h35" id="r"/><path d="M100-194c63 0 86 42 84 106H49c0 40 14 67 53 68 26 1 43-12 49-29l28 8c-11 28-37 45-77 45C44 4 14-33 15-96c1-61 26-98 85-98zm52 81c6-60-76-77-97-28-3 7-6 17-6 28h103" id="s"/><path d="M115-194c53 0 69 39 70 98 0 66-23 100-70 100C84 3 66-7 56-30L54 0H23l1-261h32v101c10-23 28-34 59-34zm-8 174c40 0 45-34 45-75 0-40-5-75-45-74-42 0-51 32-51 76 0 43 10 73 51 73" id="t"/><g id="a"><use transform="matrix(0.07407407407407408,0,0,0.07407407407407408,0,0)" xlink:href="#r"/><use transform="matrix(0.07407407407407408,0,0,0.07407407407407408,24.592592592592595,0)" xlink:href="#s"/><use transform="matrix(0.07407407407407408,0,0,0.07407407407407408,39.40740740740741,0)" xlink:href="#t"/></g><path d="M205 0l-28-72H64L36 0H1l101-248h38L239 0h-34zm-38-99l-47-123c-12 45-31 82-46 123h93" id="u"/><path d="M115-194c55 1 70 41 70 98S169 2 115 4C84 4 66-9 55-30l1 105H24l-1-265h31l2 30c10-21 28-34 59-34zm-8 174c40 0 45-34 45-75s-6-73-45-74c-42 0-51 32-51 76 0 43 10 73 51 73" id="v"/><g id="b"><use transform="matrix(0.07407407407407408,0,0,0.07407407407407408,0,0)" xlink:href="#u"/><use transform="matrix(0.07407407407407408,0,0,0.07407407407407408,17.77777777777778,0)" xlink:href="#v"/><use transform="matrix(0.07407407407407408,0,0,0.07407407407407408,32.592592592592595,0)" xlink:href="#v"/></g><path d="M240 0l2-218c-23 76-54 145-80 218h-23L58-218 59 0H30v-248h44l77 211c21-75 51-140 76-211h43V0h-30" id="w"/><path d="M135-143c-3-34-86-38-87 0 15 53 115 12 119 90S17 21 10-45l28-5c4 36 97 45 98 0-10-56-113-15-118-90-4-57 82-63 122-42 12 7 21 19 24 35" id="x"/><path d="M141-36C126-15 110 5 73 4 37 3 15-17 15-53c-1-64 63-63 125-63 3-35-9-54-41-54-24 1-41 7-42 31l-33-3c5-37 33-52 76-52 45 0 72 20 72 64v82c-1 20 7 32 28 27v20c-31 9-61-2-59-35zM48-53c0 20 12 33 32 33 41-3 63-29 60-74-43 2-92-5-92 41" id="y"/><path d="M177-190C167-65 218 103 67 71c-23-6-38-20-44-43l32-5c15 47 100 32 89-28v-30C133-14 115 1 83 1 29 1 15-40 15-95c0-56 16-97 71-98 29-1 48 16 59 35 1-10 0-23 2-32h30zM94-22c36 0 50-32 50-73 0-42-14-75-50-75-39 0-46 34-46 75s6 73 46 73" id="z"/><g id="c"><use transform="matrix(0.05,0,0,0.05,0,0)" xlink:href="#w"/><use transform="matrix(0.05,0,0,0.05,14.950000000000001,0)" xlink:href="#s"/><use transform="matrix(0.05,0,0,0.05,24.950000000000003,0)" xlink:href="#x"/><use transform="matrix(0.05,0,0,0.05,33.95,0)" xlink:href="#x"/><use transform="matrix(0.05,0,0,0.05,42.95,0)" xlink:href="#y"/><use transform="matrix(0.05,0,0,0.05,52.95,0)" xlink:href="#z"/><use transform="matrix(0.05,0,0,0.05,62.95,0)" xlink:href="#s"/></g><path d="M33 0v-248h34V0H33" id="A"/><path d="M117-194c89-4 53 116 60 194h-32v-121c0-31-8-49-39-48C34-167 62-67 57 0H25l-1-190h30c1 10-1 24 2 32 11-22 29-35 61-36" id="B"/><path d="M24-231v-30h32v30H24zM-9 49c24 4 33-6 33-30v-209h32V24c2 40-23 58-65 49V49" id="C"/><path d="M96-169c-40 0-48 33-48 73s9 75 48 75c24 0 41-14 43-38l32 2c-6 37-31 61-74 61-59 0-76-41-82-99-10-93 101-131 147-64 4 7 5 14 7 22l-32 3c-4-21-16-35-41-35" id="D"/><path d="M59-47c-2 24 18 29 38 22v24C64 9 27 4 27-40v-127H5v-23h24l9-43h21v43h35v23H59v120" id="E"/><path d="M100-194c62-1 85 37 85 99 1 63-27 99-86 99S16-35 15-95c0-66 28-99 85-99zM99-20c44 1 53-31 53-75 0-43-8-75-51-75s-53 32-53 75 10 74 51 75" id="F"/><path d="M114-163C36-179 61-72 57 0H25l-1-190h30c1 12-1 29 2 39 6-27 23-49 58-41v29" id="G"/><g id="d"><use transform="matrix(0.05,0,0,0.05,0,0)" xlink:href="#A"/><use transform="matrix(0.05,0,0,0.05,5,0)" xlink:href="#B"/><use transform="matrix(0.05,0,0,0.05,15,0)" xlink:href="#C"/><use transform="matrix(0.05,0,0,0.05,18.95,0)" xlink:href="#s"/><use transform="matrix(0.05,0,0,0.05,28.950000000000003,0)" xlink:href="#D"/><use transform="matrix(0.05,0,0,0.05,37.95,0)" xlink:href="#E"/><use transform="matrix(0.05,0,0,0.05,42.95,0)" xlink:href="#F"/><use transform="matrix(0.05,0,0,0.05,52.95,0)" xlink:href="#G"/></g><path d="M140-251c81 0 123 46 123 126C263-53 228-8 163 1c7 30 30 48 69 40v23c-55 16-95-15-103-61C56-3 17-48 17-125c0-80 42-126 123-126zm0 227c63 0 89-41 89-101s-29-99-89-99c-61 0-89 39-89 99S79-25 140-24" id="H"/><path d="M84 4C-5 8 30-112 23-190h32v120c0 31 7 50 39 49 72-2 45-101 50-169h31l1 190h-30c-1-10 1-25-2-33-11 22-28 36-60 37" id="I"/><g id="e"><use transform="matrix(0.05,0,0,0.05,0,0)" xlink:href="#H"/><use transform="matrix(0.05,0,0,0.05,14,0)" xlink:href="#I"/><use transform="matrix(0.05,0,0,0.05,24,0)" xlink:href="#s"/><use transform="matrix(0.05,0,0,0.05,34,0)" xlink:href="#I"/><use transform="matrix(0.05,0,0,0.05,44,0)" xlink:href="#s"/></g><path d="M87 75C49 33 22-17 22-94c0-76 28-126 65-167h31c-38 41-64 92-64 168S80 34 118 75H87" id="J"/><path d="M0 4l72-265h28L28 4H0" id="K"/><path d="M33-261c38 41 65 92 65 168S71 34 33 75H2C39 34 66-17 66-93S39-220 2-261h31" id="L"/><g id="f"><use transform="matrix(0.05,0,0,0.05,0,0)" xlink:href="#J"/><use transform="matrix(0.05,0,0,0.05,5.95,0)" xlink:href="#v"/><use transform="matrix(0.05,0,0,0.05,15.949999999999998,0)" xlink:href="#I"/><use transform="matrix(0.05,0,0,0.05,25.950000000000003,0)" xlink:href="#t"/><use transform="matrix(0.05,0,0,0.05,35.95,0)" xlink:href="#K"/><use transform="matrix(0.05,0,0,0.05,40.95,0)" xlink:href="#x"/><use transform="matrix(0.05,0,0,0.05,49.95,0)" xlink:href="#I"/><use transform="matrix(0.05,0,0,0.05,59.95,0)" xlink:href="#t"/><use transform="matrix(0.05,0,0,0.05,69.95,0)" xlink:href="#L"/></g><g id="g"><use transform="matrix(0.07407407407407408,0,0,0.07407407407407408,0,0)" xlink:href="#u"/><use transform="matrix(0.07407407407407408,0,0,0.07407407407407408,17.77777777777778,0)" xlink:href="#D"/><use transform="matrix(0.07407407407407408,0,0,0.07407407407407408,31.111111111111114,0)" xlink:href="#E"/><use transform="matrix(0.07407407407407408,0,0,0.07407407407407408,38.51851851851851,0)" xlink:href="#I"/><use transform="matrix(0.07407407407407408,0,0,0.07407407407407408,53.33333333333333,0)" xlink:href="#y"/><use transform="matrix(0.07407407407407408,0,0,0.07407407407407408,68.14814814814815,0)" xlink:href="#E"/><use transform="matrix(0.07407407407407408,0,0,0.07407407407407408,75.55555555555556,0)" xlink:href="#F"/><use transform="matrix(0.07407407407407408,0,0,0.07407407407407408,90.37037037037038,0)" xlink:href="#G"/></g><path d="M30 0v-248h187v28H63v79h144v27H63v87h162V0H30" id="M"/><path d="M85-194c31 0 48 13 60 33l-1-100h32l1 261h-30c-2-10 0-23-3-31C134-8 116 4 85 4 32 4 16-35 15-94c0-66 23-100 70-100zm9 24c-40 0-46 34-46 75 0 40 6 74 45 74 42 0 51-32 51-76 0-42-9-74-50-73" id="N"/><g id="h"><use transform="matrix(0.05,0,0,0.05,0,0)" xlink:href="#M"/><use transform="matrix(0.05,0,0,0.05,12,0)" xlink:href="#B"/><use transform="matrix(0.05,0,0,0.05,22,0)" xlink:href="#D"/><use transform="matrix(0.05,0,0,0.05,31,0)" xlink:href="#F"/><use transform="matrix(0.05,0,0,0.05,41,0)" xlink:href="#N"/><use transform="matrix(0.05,0,0,0.05,51,0)" xlink:href="#s"/><use transform="matrix(0.05,0,0,0.05,61,0)" xlink:href="#G"/></g><path d="M232-93c-1 65-40 97-104 97C67 4 28-28 28-90v-158h33c8 89-33 224 67 224 102 0 64-133 71-224h33v155" id="O"/><path d="M63-220v92h138v28H63V0H30v-248h175v28H63" id="P"/><g id="i"><use transform="matrix(0.05,0,0,0.05,0,0)" xlink:href="#O"/><use transform="matrix(0.05,0,0,0.05,12.950000000000001,0)" xlink:href="#A"/><use transform="matrix(0.05,0,0,0.05,17.950000000000003,0)" xlink:href="#K"/><use transform="matrix(0.05,0,0,0.05,22.950000000000003,0)" xlink:href="#P"/><use transform="matrix(0.05,0,0,0.05,33.900000000000006,0)" xlink:href="#G"/><use transform="matrix(0.05,0,0,0.05,39.85000000000001,0)" xlink:href="#F"/><use transform="matrix(0.05,0,0,0.05,49.85000000000001,0)" xlink:href="#B"/><use transform="matrix(0.05,0,0,0.05,59.85,0)" xlink:href="#E"/></g><g id="j"><use transform="matrix(0.05,0,0,0.05,0,0)" xlink:href="#M"/><use transform="matrix(0.05,0,0,0.05,12,0)" xlink:href="#B"/><use transform="matrix(0.05,0,0,0.05,22,0)" xlink:href="#N"/></g><path d="M160-131c35 5 61 23 61 61C221 17 115-2 30 0v-248c76 3 177-17 177 60 0 33-19 50-47 57zm-97-11c50-1 110 9 110-42 0-47-63-36-110-37v79zm0 115c55-2 124 14 124-45 0-56-70-42-124-44v89" id="Q"/><path d="M143 0L79-87 56-68V0H24v-261h32v163l83-92h37l-77 82L181 0h-38" id="R"/><g id="k"><use transform="matrix(0.05,0,0,0.05,0,0)" xlink:href="#Q"/><use transform="matrix(0.05,0,0,0.05,12,0)" xlink:href="#y"/><use transform="matrix(0.05,0,0,0.05,22,0)" xlink:href="#D"/><use transform="matrix(0.05,0,0,0.05,31,0)" xlink:href="#R"/><use transform="matrix(0.05,0,0,0.05,40,0)" xlink:href="#s"/><use transform="matrix(0.05,0,0,0.05,50,0)" xlink:href="#B"/><use transform="matrix(0.05,0,0,0.05,60,0)" xlink:href="#N"/></g><path d="M185-189c-5-48-123-54-124 2 14 75 158 14 163 119 3 78-121 87-175 55-17-10-28-26-33-46l33-7c5 56 141 63 141-1 0-78-155-14-162-118-5-82 145-84 179-34 5 7 8 16 11 25" id="S"/><path d="M24-231v-30h32v30H24zM24 0v-190h32V0H24" id="T"/><g id="l"><use transform="matrix(0.05,0,0,0.05,0,0)" xlink:href="#J"/><use transform="matrix(0.05,0,0,0.05,5.95,0)" xlink:href="#S"/><use transform="matrix(0.05,0,0,0.05,17.95,0)" xlink:href="#s"/><use transform="matrix(0.05,0,0,0.05,27.950000000000003,0)" xlink:href="#x"/><use transform="matrix(0.05,0,0,0.05,36.95,0)" xlink:href="#x"/><use transform="matrix(0.05,0,0,0.05,45.95,0)" xlink:href="#T"/><use transform="matrix(0.05,0,0,0.05,49.900000000000006,0)" xlink:href="#F"/><use transform="matrix(0.05,0,0,0.05,59.900000000000006,0)" xlink:href="#B"/></g><g id="m"><use transform="matrix(0.05,0,0,0.05,0,0)" xlink:href="#S"/><use transform="matrix(0.05,0,0,0.05,12,0)" xlink:href="#E"/><use transform="matrix(0.05,0,0,0.05,17,0)" xlink:href="#y"/><use transform="matrix(0.05,0,0,0.05,27,0)" xlink:href="#E"/><use transform="matrix(0.05,0,0,0.05,32,0)" xlink:href="#s"/><use transform="matrix(0.05,0,0,0.05,42,0)" xlink:href="#L"/></g><g id="n"><use transform="matrix(0.05,0,0,0.05,0,0)" xlink:href="#S"/><use transform="matrix(0.05,0,0,0.05,12,0)" xlink:href="#I"/><use transform="matrix(0.05,0,0,0.05,22,0)" xlink:href="#t"/><use transform="matrix(0.05,0,0,0.05,32,0)" xlink:href="#x"/><use transform="matrix(0.05,0,0,0.05,41,0)" xlink:href="#D"/><use transform="matrix(0.05,0,0,0.05,50,0)" xlink:href="#G"/><use transform="matrix(0.05,0,0,0.05,55.95,0)" xlink:href="#T"/><use transform="matrix(0.05,0,0,0.05,59.900000000000006,0)" xlink:href="#t"/><use transform="matrix(0.05,0,0,0.05,69.9,0)" xlink:href="#s"/><use transform="matrix(0.05,0,0,0.05,79.9,0)" xlink:href="#G"/></g><g id="o"><use transform="matrix(0.05,0,0,0.05,0,0)" xlink:href="#u"/><use transform="matrix(0.05,0,0,0.05,12,0)" xlink:href="#D"/><use transform="matrix(0.05,0,0,0.05,21,0)" xlink:href="#E"/><use transform="matrix(0.05,0,0,0.05,26,0)" xlink:href="#F"/><use transform="matrix(0.05,0,0,0.05,36,0)" xlink:href="#G"/></g><g id="p"><use transform="matrix(0.05,0,0,0.05,0,0)" xlink:href="#u"/><use transform="matrix(0.05,0,0,0.05,11.35,0)" xlink:href="#r"/><use transform="matrix(0.05,0,0,0.05,28.299999999999997,0)" xlink:href="#S"/></g><path d="M233-177c-1 41-23 64-60 70L243 0h-38l-65-103H63V0H30v-248c88 3 205-21 203 71zM63-129c60-2 137 13 137-47 0-61-80-42-137-45v92" id="U"/><g id="q"><use transform="matrix(0.05,0,0,0.05,0,0)" xlink:href="#U"/><use transform="matrix(0.05,0,0,0.05,12.950000000000001,0)" xlink:href="#s"/><use transform="matrix(0.05,0,0,0.05,22.950000000000003,0)" xlink:href="#x"/><use transform="matrix(0.05,0,0,0.05,31.950000000000003,0)" xlink:href="#v"/><use transform="matrix(0.05,0,0,0.05,41.95,0)" xlink:href="#F"/><use transform="matrix(0.05,0,0,0.05,51.95,0)" xlink:href="#B"/><use transform="matrix(0.05,0,0,0.05,61.95,0)" xlink:href="#N"/><use transform="matrix(0.05,0,0,0.05,71.95,0)" xlink:href="#s"/><use transform="matrix(0.05,0,0,0.05,81.95,0)" xlink:href="#G"/></g></defs></g></svg>